<?xml version="1.0"?>
                      
<svg xmlns="http://www.w3.org/2000/svg"
     xmlns:xlink="http://www.w3.org/1999/xlink"
     width="580" height="400">
  <style type="text/css">
    polygon:hover {
      stroke: black;
      stroke-width: 3;
    }
    
    rect:hover,
    circle:hover {
      stroke: yellow !important;
      stroke-width: 3 !important;
    }
    
    ellipse:hover {
      stroke: yellow !important;
    }
    
    line:hover {
      stroke: green;
    }
    
    polyline:hover,
    path:hover {
      stroke: blue;
      stroke-width: 3;
    }
  </style>
  
  <script type="text/javascript">
    var oldPreId = 'svg-rect-code';
    
    function selectCode(preId) {
      var doc = top.document;
      if (!doc || top.document === document) {
        console.log('Unable to find parent document: ' + doc);
        return;
      }
      
      var oldPre = doc.getElementById(oldPreId);
      oldPre.classList.remove('svg-shape-selected');
      
      var pre = doc.getElementById(preId);
      oldPreId = preId;
      pre.classList.add('svg-shape-selected');
    }
  </script>
  
  <rect x="50" y="50"
      width="100" height="100"
      rx="5" ry="5"
      style="fill: rgba(0, 0, 255, 0.8); stroke-width: 1; stroke: green;"
      onmouseover="selectCode('svg-rect-code')" />
      
  <circle cx="250" cy="100" r="50" fill="orange" stroke="black" 
      onmouseover="selectCode('svg-circle-code')" />
  
  <ellipse cx="10em" cy="5em" rx="200" ry="80"
      fill="rgb(200, 100, 50)" stroke="rgb(0, 0, 100)"
      stroke-width="1cm"
      transform="translate(70, 215) scale(0.2)" 
      onmouseover="selectCode('svg-ellipse-code')" />
      
  <line x1="320" y1="100" x2="400" y2="200"
      stroke-width="5px" stroke="blue" 
      onmouseover="selectCode('svg-line-code')" />
      
  <polyline points="0,60 20,20 40, 100, 60,40, 80,100, 100,40 120,100"
      fill="red" stroke="black" 
      transform="translate(400, 45)" 
      onmouseover="selectCode('svg-polyline-code')" />
  
  <polygon fill="red" fill-opacity="0.4"
      points="350,75  379,161 469,161 397,215
              423,301 350,250 277,301 303,215
              231,161 321,161"
      transform="translate(0, -20) rotate(15)" 
      onmouseover="selectCode('svg-polygon-code')" />
      
  <path d="M10 10 h 80 v 80 h -80 Z"
      fill="transparent" stroke="black" 
      transform="translate(430, 220)" 
      onmouseover="selectCode('svg-path-code')" />
</svg>