<?xml version="1.0"?>
                      
<svg xmlns="http://www.w3.org/2000/svg"
     xmlns:xlink="http://www.w3.org/1999/xlink"
     width="580" height="400">
     
  <g>
  
    <rect x="50" y="50"
        width="100" height="100"
        rx="5" ry="5"
        style="fill: rgba(0, 0, 255, 0.8); stroke-width: 1; stroke: green;" />
      
    <circle cx="250" cy="100" r="50" fill="orange" stroke="black"  />
  
    <ellipse cx="10em" cy="5em" rx="200" ry="80"
        fill="rgb(200, 100, 50)" stroke="rgb(0, 0, 100)"
        stroke-width="1cm"
        transform="translate(70, 215) scale(0.2)" />
      
    <line x1="320" y1="100" x2="400" y2="200"
        stroke-width="5px" stroke="blue" />
      
    <polyline points="0,60 20,20 40, 100, 60,40, 80,100, 100,40 120,100"
        fill="red" stroke="black" 
        transform="translate(400, 45)" />
  
    <polygon fill="red" fill-opacity="0.4"
        points="350,75  379,161 469,161 397,215
                423,301 350,250 277,301 303,215
                231,161 321,161"
        transform="translate(0, -20) rotate(15)" />
      
    <path d="M10 10 h 80 v 80 h -80 Z"
        fill="transparent" stroke="black" 
        transform="translate(430, 220)" />
      
  </g>
</svg>